<?xml version="1.0" standalone="no"?>
<!DOCTYPE svg PUBLIC "-//W3C//DTD SVG 20010904//EN"
 "http://www.w3.org/TR/2001/REC-SVG-20010904/DTD/svg10.dtd">
<svg version="1.0" xmlns="http://www.w3.org/2000/svg"
 width="800.000000pt" height="800.000000pt" viewBox="0 0 800.000000 800.000000"
 preserveAspectRatio="xMidYMid meet">
<metadata>
Created by potrace 1.11, written by Peter Selinger 2001-2013
</metadata>
<g transform="translate(0.000000,800.000000) scale(0.100000,-0.100000)"
fill="#000000" stroke="none">
<path d="M2440 7428 c-1235 -313 -2246 -571 -2248 -572 -6 -7 -53 -230 -77
-366 -73 -419 -98 -731 -99 -1225 0 -394 7 -550 45 -910 111 -1061 432 -2238
918 -3365 39 -90 72 -170 74 -178 1 -8 -73 -45 -201 -102 -112 -49 -206 -90
-207 -92 -2 -2 96 -39 218 -82 122 -44 263 -94 314 -112 l91 -32 -9 31 c-18
61 -59 258 -79 379 -103 637 -82 1345 60 1968 152 671 438 1289 846 1830 104
138 247 312 280 342 12 10 723 198 1849 488 1007 259 1833 475 1836 478 4 4
37 97 74 206 86 258 207 559 305 764 43 89 74 162 69 162 -5 0 -212 -56 -459
-125 -247 -69 -451 -125 -453 -125 -4 0 30 335 52 502 10 79 17 144 16 146 -2
2 -213 -53 -469 -122 -255 -69 -467 -126 -470 -126 -11 0 -18 129 -24 456 l-7
351 -2245 -569z"/>
<path d="M2955 4679 c-234 -32 -444 -141 -571 -297 -59 -72 -120 -200 -141
-295 -18 -88 -12 -255 13 -337 40 -132 123 -250 241 -339 89 -68 349 -195 543
-267 370 -135 552 -250 623 -391 66 -130 61 -319 -10 -440 -106 -182 -380
-286 -663 -253 -279 34 -463 170 -504 374 l-13 61 -138 3 -138 3 7 -65 c24
-241 161 -434 381 -541 166 -81 342 -112 570 -102 208 9 312 35 470 115 121
62 244 182 298 293 58 118 79 213 80 359 1 211 -48 334 -188 476 -132 135
-284 219 -675 374 -248 99 -363 155 -452 220 -128 94 -172 186 -166 343 3 80
7 101 35 158 45 90 128 168 235 219 122 59 203 73 378 67 160 -6 251 -25 371
-79 38 -17 71 -29 73 -27 7 8 76 237 76 252 0 21 -138 74 -255 98 -107 23
-375 33 -480 18z"/>
<path d="M3820 4515 l0 -135 310 0 310 0 2 -1272 3 -1273 135 0 135 0 3 1273
2 1272 325 0 325 0 0 135 0 135 -775 0 -775 0 0 -135z"/>
<path d="M5522 3243 l3 -1408 75 -3 c41 -2 103 0 137 3 l63 7 2 936 3 937 48
-150 c63 -197 298 -940 434 -1375 l109 -345 139 -3 140 -2 172 547 c94 302
227 725 295 942 l123 395 3 -942 2 -942 140 0 140 0 0 1405 0 1406 -136 -3
-137 -3 -367 -1148 c-202 -631 -369 -1150 -372 -1152 -3 -3 -19 41 -37 97 -17
57 -186 576 -374 1153 l-343 1050 -132 3 -132 3 2 -1408z"/>
<path d="M2517 1620 c-128 -32 -230 -123 -269 -238 -22 -65 -23 -81 -26 -531
-2 -282 1 -490 7 -529 20 -131 93 -230 209 -285 66 -31 70 -32 240 -35 189 -4
322 14 322 44 0 22 -22 108 -30 117 -3 4 -42 0 -85 -9 -54 -11 -111 -15 -184
-12 -90 3 -115 8 -169 32 -66 31 -115 78 -138 132 -22 52 -20 930 2 1003 43
147 209 206 420 150 43 -11 85 -22 93 -22 8 -1 22 21 34 56 25 68 29 64 -83
103 -60 21 -97 27 -190 30 -63 2 -132 -1 -153 -6z"/>
<path d="M3318 1615 c-120 -33 -202 -95 -248 -188 -47 -97 -54 -203 -43 -712
l9 -430 28 -63 c37 -80 122 -161 203 -193 80 -31 292 -39 380 -14 142 41 236
134 271 270 17 63 18 997 2 1060 -38 147 -124 227 -287 269 -74 19 -247 20
-315 1z m309 -165 c61 -26 115 -81 134 -136 11 -31 14 -138 14 -519 0 -475 0
-480 -22 -521 -27 -51 -80 -98 -130 -115 -23 -9 -80 -14 -143 -14 -95 0 -110
3 -163 29 -65 31 -110 84 -127 148 -7 24 -10 204 -8 501 3 507 3 504 66 570
81 85 255 112 379 57z"/>
<path d="M4030 810 l0 -800 80 0 80 0 2 528 3 527 27 -85 c15 -47 90 -283 167
-525 l139 -440 79 -3 79 -3 101 323 c56 178 130 414 165 526 l63 204 6 -264
c4 -145 7 -381 8 -525 l1 -263 75 0 75 0 0 613 c0 336 3 697 7 800 l6 188 -83
-3 -83 -3 -28 -85 c-15 -47 -107 -335 -204 -640 -97 -305 -180 -558 -184 -563
-4 -4 -102 284 -218 640 l-211 648 -76 3 -76 3 0 -801z"/>
<path d="M5320 811 l0 -801 80 0 80 0 0 254 0 254 218 4 c210 3 219 4 273 29
97 46 152 116 185 236 25 92 31 390 10 486 -34 151 -106 250 -224 305 -57 27
-58 27 -339 30 l-283 3 0 -800z m523 638 c28 -7 57 -27 89 -59 70 -72 88 -140
88 -329 0 -229 -32 -326 -122 -370 -40 -19 -61 -21 -231 -21 l-187 0 0 394 0
395 161 0 c89 1 179 -4 202 -10z"/>
<path d="M6240 1535 l0 -75 178 -2 177 -3 3 -722 2 -723 75 0 75 0 0 725 0
725 185 0 185 0 0 75 0 75 -440 0 -440 0 0 -75z"/>
<path d="M7146 823 c-137 -434 -251 -794 -254 -801 -3 -10 15 -12 83 -10 l87
3 82 258 81 257 216 0 215 0 71 -218 c40 -119 77 -236 84 -259 l12 -43 88 0
88 0 -12 39 c-7 22 -122 382 -257 800 l-245 761 -45 0 -45 0 -249 -787z m464
-135 c0 -5 -77 -8 -171 -8 -133 0 -170 3 -166 13 2 6 40 131 83 277 l78 264
88 -269 c48 -149 88 -273 88 -277z"/>
</g>
</svg>
